<mxfile host="app.diagrams.net" agent="Mozilla/5.0 (Windows NT 10.0; Win64; x64) AppleWebKit/537.36 (KHTML, like Gecko) Chrome/135.0.0.0 Safari/537.36" version="26.2.14">
  <diagram name="Page-1" id="52a04d89-c75d-2922-d76d-85b35f80e030">
    <mxGraphModel dx="342" dy="171" grid="1" gridSize="10" guides="1" tooltips="1" connect="1" arrows="1" fold="1" page="1" pageScale="1" pageWidth="1100" pageHeight="850" background="none" math="0" shadow="0">
      <root>
        <mxCell id="0" />
        <mxCell id="1" parent="0" />
        <mxCell id="Ah7HCtGAJgqZncpZ4vAo-14" value="" style="group" parent="1" vertex="1" connectable="0">
          <mxGeometry x="200" y="240" width="200" height="48" as="geometry" />
        </mxCell>
        <mxCell id="Ah7HCtGAJgqZncpZ4vAo-10" value="&lt;div&gt;&lt;span style=&quot;font-family: 標楷體; background-color: transparent; color: light-dark(rgb(0, 0, 0), rgb(255, 255, 255));&quot;&gt;確定研究對象與研究方向&lt;/span&gt;&lt;/div&gt;" style="rounded=1;whiteSpace=wrap;html=1;strokeColor=#666666;" parent="Ah7HCtGAJgqZncpZ4vAo-14" vertex="1">
          <mxGeometry y="20" width="200" height="28" as="geometry" />
        </mxCell>
        <mxCell id="Ah7HCtGAJgqZncpZ4vAo-2" value="&lt;font face=&quot;標楷體&quot;&gt;一&lt;/font&gt;" style="rounded=1;whiteSpace=wrap;html=1;shadow=0;comic=0;strokeColor=#808080;strokeWidth=1;align=center;verticalAlign=middle;swimlaneFillColor=#ffffff;fontFamily=Verdana;fontSize=12;fontColor=default;fontStyle=0;labelBackgroundColor=none;horizontal=1;fillColor=#e0e0e0;" parent="Ah7HCtGAJgqZncpZ4vAo-14" vertex="1">
          <mxGeometry width="200" height="20" as="geometry" />
        </mxCell>
        <mxCell id="Ah7HCtGAJgqZncpZ4vAo-15" value="" style="group" parent="1" vertex="1" connectable="0">
          <mxGeometry x="200" y="310" width="200" height="48" as="geometry" />
        </mxCell>
        <mxCell id="Ah7HCtGAJgqZncpZ4vAo-12" value="&lt;font face=&quot;標楷體&quot;&gt;訂定研究議題&lt;/font&gt;" style="rounded=1;whiteSpace=wrap;html=1;strokeColor=#666666;" parent="Ah7HCtGAJgqZncpZ4vAo-15" vertex="1">
          <mxGeometry y="20" width="200" height="28" as="geometry" />
        </mxCell>
        <mxCell id="Ah7HCtGAJgqZncpZ4vAo-13" value="&lt;font face=&quot;標楷體&quot;&gt;二&lt;/font&gt;" style="rounded=1;whiteSpace=wrap;html=1;shadow=0;comic=0;strokeColor=#808080;strokeWidth=1;align=center;verticalAlign=middle;swimlaneFillColor=#ffffff;fontFamily=Verdana;fontSize=12;fontColor=default;fontStyle=0;labelBackgroundColor=none;horizontal=1;fillColor=#e0e0e0;" parent="Ah7HCtGAJgqZncpZ4vAo-15" vertex="1">
          <mxGeometry width="200" height="20" as="geometry" />
        </mxCell>
        <mxCell id="Ah7HCtGAJgqZncpZ4vAo-16" value="" style="group" parent="1" vertex="1" connectable="0">
          <mxGeometry x="200" y="380" width="200" height="48" as="geometry" />
        </mxCell>
        <mxCell id="Ah7HCtGAJgqZncpZ4vAo-17" value="&lt;font face=&quot;標楷體&quot;&gt;蒐集相關文獻與探討&lt;/font&gt;" style="rounded=1;whiteSpace=wrap;html=1;strokeColor=#666666;" parent="Ah7HCtGAJgqZncpZ4vAo-16" vertex="1">
          <mxGeometry y="20" width="200" height="28" as="geometry" />
        </mxCell>
        <mxCell id="Ah7HCtGAJgqZncpZ4vAo-18" value="&lt;font face=&quot;標楷體&quot;&gt;三&lt;/font&gt;" style="rounded=1;whiteSpace=wrap;html=1;shadow=0;comic=0;strokeColor=#808080;strokeWidth=1;align=center;verticalAlign=middle;swimlaneFillColor=#ffffff;fontFamily=Verdana;fontSize=12;fontColor=default;fontStyle=0;labelBackgroundColor=none;horizontal=1;fillColor=#e0e0e0;" parent="Ah7HCtGAJgqZncpZ4vAo-16" vertex="1">
          <mxGeometry width="200" height="20" as="geometry" />
        </mxCell>
        <mxCell id="Ah7HCtGAJgqZncpZ4vAo-19" value="" style="group" parent="1" vertex="1" connectable="0">
          <mxGeometry x="200" y="450" width="200" height="48" as="geometry" />
        </mxCell>
        <mxCell id="Ah7HCtGAJgqZncpZ4vAo-20" value="&lt;font face=&quot;標楷體&quot;&gt;蒐集個案資料&lt;/font&gt;" style="rounded=1;whiteSpace=wrap;html=1;strokeColor=#666666;" parent="Ah7HCtGAJgqZncpZ4vAo-19" vertex="1">
          <mxGeometry y="20" width="200" height="28" as="geometry" />
        </mxCell>
        <mxCell id="Ah7HCtGAJgqZncpZ4vAo-21" value="&lt;font face=&quot;標楷體&quot;&gt;四&lt;/font&gt;" style="rounded=1;whiteSpace=wrap;html=1;shadow=0;comic=0;strokeColor=#808080;strokeWidth=1;align=center;verticalAlign=middle;swimlaneFillColor=#ffffff;fontFamily=Verdana;fontSize=12;fontColor=default;fontStyle=0;labelBackgroundColor=none;horizontal=1;fillColor=#e0e0e0;" parent="Ah7HCtGAJgqZncpZ4vAo-19" vertex="1">
          <mxGeometry width="200" height="20" as="geometry" />
        </mxCell>
        <mxCell id="Ah7HCtGAJgqZncpZ4vAo-22" value="" style="group" parent="1" vertex="1" connectable="0">
          <mxGeometry x="200" y="520" width="200" height="48" as="geometry" />
        </mxCell>
        <mxCell id="Ah7HCtGAJgqZncpZ4vAo-23" value="&lt;font face=&quot;標楷體&quot;&gt;訂定研究架構與觀察重點&lt;/font&gt;" style="rounded=1;whiteSpace=wrap;html=1;strokeColor=#666666;" parent="Ah7HCtGAJgqZncpZ4vAo-22" vertex="1">
          <mxGeometry y="20" width="200" height="28" as="geometry" />
        </mxCell>
        <mxCell id="Ah7HCtGAJgqZncpZ4vAo-24" value="&lt;font face=&quot;標楷體&quot;&gt;五&lt;/font&gt;" style="rounded=1;whiteSpace=wrap;html=1;shadow=0;comic=0;strokeColor=#808080;strokeWidth=1;align=center;verticalAlign=middle;swimlaneFillColor=#ffffff;fontFamily=Verdana;fontSize=12;fontColor=default;fontStyle=0;labelBackgroundColor=none;horizontal=1;fillColor=#e0e0e0;" parent="Ah7HCtGAJgqZncpZ4vAo-22" vertex="1">
          <mxGeometry width="200" height="20" as="geometry" />
        </mxCell>
        <mxCell id="Ah7HCtGAJgqZncpZ4vAo-25" value="" style="group" parent="1" vertex="1" connectable="0">
          <mxGeometry x="200" y="590" width="200" height="48" as="geometry" />
        </mxCell>
        <mxCell id="Ah7HCtGAJgqZncpZ4vAo-26" value="&lt;font face=&quot;標楷體&quot;&gt;資料彙整與分析&lt;/font&gt;" style="rounded=1;whiteSpace=wrap;html=1;strokeColor=#666666;" parent="Ah7HCtGAJgqZncpZ4vAo-25" vertex="1">
          <mxGeometry y="20" width="200" height="28" as="geometry" />
        </mxCell>
        <mxCell id="Ah7HCtGAJgqZncpZ4vAo-27" value="&lt;font face=&quot;標楷體&quot;&gt;六&lt;/font&gt;" style="rounded=1;whiteSpace=wrap;html=1;shadow=0;comic=0;strokeColor=#808080;strokeWidth=1;align=center;verticalAlign=middle;swimlaneFillColor=#ffffff;fontFamily=Verdana;fontSize=12;fontColor=default;fontStyle=0;labelBackgroundColor=none;horizontal=1;fillColor=#e0e0e0;" parent="Ah7HCtGAJgqZncpZ4vAo-25" vertex="1">
          <mxGeometry width="200" height="20" as="geometry" />
        </mxCell>
        <mxCell id="Ah7HCtGAJgqZncpZ4vAo-28" value="" style="group" parent="1" vertex="1" connectable="0">
          <mxGeometry x="200" y="660" width="200" height="48" as="geometry" />
        </mxCell>
        <mxCell id="Ah7HCtGAJgqZncpZ4vAo-29" value="&lt;font face=&quot;標楷體&quot;&gt;提出研究成果&lt;/font&gt;" style="rounded=1;whiteSpace=wrap;html=1;strokeColor=#666666;" parent="Ah7HCtGAJgqZncpZ4vAo-28" vertex="1">
          <mxGeometry y="20" width="200" height="28" as="geometry" />
        </mxCell>
        <mxCell id="Ah7HCtGAJgqZncpZ4vAo-30" value="&lt;font face=&quot;標楷體&quot;&gt;七&lt;/font&gt;" style="rounded=1;whiteSpace=wrap;html=1;shadow=0;comic=0;strokeColor=#808080;strokeWidth=1;align=center;verticalAlign=middle;swimlaneFillColor=#ffffff;fontFamily=Verdana;fontSize=12;fontColor=default;fontStyle=0;labelBackgroundColor=none;horizontal=1;fillColor=#e0e0e0;" parent="Ah7HCtGAJgqZncpZ4vAo-28" vertex="1">
          <mxGeometry width="200" height="20" as="geometry" />
        </mxCell>
        <mxCell id="Ah7HCtGAJgqZncpZ4vAo-34" style="edgeStyle=orthogonalEdgeStyle;rounded=0;orthogonalLoop=1;jettySize=auto;html=1;exitX=0.5;exitY=1;exitDx=0;exitDy=0;entryX=0.5;entryY=0;entryDx=0;entryDy=0;strokeColor=default;strokeWidth=1;endArrow=classic;endFill=1;align=center;verticalAlign=middle;fontFamily=Helvetica;fontSize=11;fontColor=default;labelBackgroundColor=default;" parent="1" source="Ah7HCtGAJgqZncpZ4vAo-10" target="Ah7HCtGAJgqZncpZ4vAo-13" edge="1">
          <mxGeometry relative="1" as="geometry" />
        </mxCell>
        <mxCell id="Ah7HCtGAJgqZncpZ4vAo-36" style="edgeStyle=orthogonalEdgeStyle;rounded=0;orthogonalLoop=1;jettySize=auto;html=1;exitX=0.5;exitY=1;exitDx=0;exitDy=0;entryX=0.5;entryY=0;entryDx=0;entryDy=0;" parent="1" source="Ah7HCtGAJgqZncpZ4vAo-12" target="Ah7HCtGAJgqZncpZ4vAo-18" edge="1">
          <mxGeometry relative="1" as="geometry" />
        </mxCell>
        <mxCell id="Ah7HCtGAJgqZncpZ4vAo-39" style="edgeStyle=orthogonalEdgeStyle;rounded=0;orthogonalLoop=1;jettySize=auto;html=1;exitX=0.5;exitY=1;exitDx=0;exitDy=0;entryX=0.5;entryY=0;entryDx=0;entryDy=0;" parent="1" source="Ah7HCtGAJgqZncpZ4vAo-17" target="Ah7HCtGAJgqZncpZ4vAo-21" edge="1">
          <mxGeometry relative="1" as="geometry" />
        </mxCell>
        <mxCell id="Ah7HCtGAJgqZncpZ4vAo-40" style="edgeStyle=orthogonalEdgeStyle;rounded=0;orthogonalLoop=1;jettySize=auto;html=1;exitX=0.5;exitY=1;exitDx=0;exitDy=0;entryX=0.5;entryY=0;entryDx=0;entryDy=0;" parent="1" source="Ah7HCtGAJgqZncpZ4vAo-20" target="Ah7HCtGAJgqZncpZ4vAo-24" edge="1">
          <mxGeometry relative="1" as="geometry" />
        </mxCell>
        <mxCell id="Ah7HCtGAJgqZncpZ4vAo-41" style="edgeStyle=orthogonalEdgeStyle;rounded=0;orthogonalLoop=1;jettySize=auto;html=1;exitX=0.5;exitY=1;exitDx=0;exitDy=0;entryX=0.5;entryY=0;entryDx=0;entryDy=0;" parent="1" source="Ah7HCtGAJgqZncpZ4vAo-23" target="Ah7HCtGAJgqZncpZ4vAo-27" edge="1">
          <mxGeometry relative="1" as="geometry" />
        </mxCell>
        <mxCell id="Ah7HCtGAJgqZncpZ4vAo-42" style="edgeStyle=orthogonalEdgeStyle;rounded=0;orthogonalLoop=1;jettySize=auto;html=1;exitX=0.5;exitY=1;exitDx=0;exitDy=0;entryX=0.5;entryY=0;entryDx=0;entryDy=0;" parent="1" source="Ah7HCtGAJgqZncpZ4vAo-26" target="Ah7HCtGAJgqZncpZ4vAo-30" edge="1">
          <mxGeometry relative="1" as="geometry" />
        </mxCell>
      </root>
    </mxGraphModel>
  </diagram>
</mxfile>
